<svg width="760" height="132" viewBox="0 0 760 132" fill="none" xmlns="http://www.w3.org/2000/svg">
  <g>
    <rect x="14" y="59" width="10" height="14" rx="5" fill="#39ACEE"/>
    <rect x="34" y="49" width="10" height="34" rx="5" fill="#39ACEE"/>
    <rect x="54" y="37" width="10" height="58" rx="5" fill="#39ACEE"/>
    <rect x="74" y="23" width="10" height="86" rx="5" fill="#39ACEE"/>
    <rect x="94" y="41" width="10" height="50" rx="5" fill="#39ACEE"/>
    <rect x="114" y="25" width="10" height="82" rx="5" fill="#39ACEE"/>
    <rect x="134" y="3" width="10" height="126" rx="5" fill="#39ACEE"/>
    <rect x="154" y="17" width="10" height="98" rx="5" fill="#39ACEE"/>
    <rect x="174" y="41" width="10" height="50" rx="5" fill="#39ACEE"/>
    <rect x="194" y="31" width="10" height="70" rx="5" fill="#39ACEE"/>
    <rect x="214" y="49" width="10" height="34" rx="5" fill="#39ACEE"/>
    <rect x="234" y="57" width="10" height="18" rx="5" fill="#39ACEE"/>
  </g>
  <text x="278" y="74" fill="#F2F7FF" font-size="62" font-family="Avenir Next, Manrope, Arial, sans-serif" font-weight="600" letter-spacing="1.2">SplitLAB</text>
  <text x="282" y="106" fill="#9BB5D8" font-size="18" font-family="Manrope, Arial, sans-serif" letter-spacing="1">Local AI stem separation</text>
</svg>
